<svg width="40" height="37" viewBox="0 0 40 37" fill="none" xmlns="http://www.w3.org/2000/svg">
<path d="M31.2 20.8654C31.2 20.4679 30.8 20.0705 30.4 20.0705C30.2 20.0705 30 20.0705 29.8 20.2692C27.2 22.4551 23.8 23.6474 20.2 23.6474C16.8 23.6474 13.4 22.4551 10.6 20.2692C10.4 20.0705 10.2 20.0705 10 20.0705C9.6 20.0705 9.2 20.4679 9.2 20.8654C9.2 21.2628 9.4 21.4615 9.6 21.8589C12.2 25.0384 16.2 26.8269 20.2 26.6282C24.2 26.8269 28 25.0384 30.6 21.8589C31 21.4615 31 21.2628 31.2 20.8654ZM36.6 34.5769C35 33.782 33.8 32.1923 33.2 30.6025C33 30.2051 33.2 30.0064 33.4 29.8076C37.6 26.8269 40 22.0577 40 17.0897C40 7.55127 31 0 20 0C9 0 0 7.74999 0 17.0897C0 26.6282 9 34.1794 20 34.1794C21.4 34.1794 22.8 33.9807 24.2 33.782C24.4 33.782 24.8 33.782 25 33.9807C28.2 35.7692 31.8 36.9615 35.4 36.9615C36.2 37.1602 36.8 36.564 37 35.7692V35.5705C37.2 35.173 37 34.7756 36.6 34.5769ZM31.2 32.9871V33.1859C31.2 33.3846 31 33.3846 31 33.3846C28.8 32.7884 27 31.7948 25.2 30.4038C25 30.2051 24.6 30.2051 24.2 30.2051C22.8 30.6025 21.4 30.6025 20 30.6025C10.8 30.6025 3.4 24.4423 3.4 16.891C3.4 9.33973 10.8 3.17948 20 3.17948C29.2 3.17948 36.6 9.33973 36.6 16.891C36.4 21.4615 33.8 25.6346 29.8 27.8205C29.4 28.0192 29.2 28.4166 29.2 28.6153C29.8 30.4038 30.4 31.7948 31.2 32.9871Z" fill="white"/>
</svg>
