<svg width="24" height="24" viewBox="0 0 24 24" fill="none" xmlns="http://www.w3.org/2000/svg">
<path d="M24 12C24 18.6327 18.6327 24 12 24C5.36724 24 -3.05176e-05 18.6327 -3.05176e-05 12C-3.05176e-05 5.36727 5.36724 0 12 0C18.6327 0 24 5.36727 24 12ZM13.0909 3.33818C15.4145 3.63273 17.5309 4.85455 18.9491 6.72L20.8472 5.62909C19.9508 4.36519 18.7955 3.30675 17.4581 2.52424C16.1206 1.74173 14.6319 1.25311 13.0909 1.09091V3.33818ZM3.1527 5.62909L5.05088 6.72C5.75411 5.7958 6.63425 5.02082 7.64002 4.44021C8.64578 3.8596 9.75705 3.48498 10.9091 3.33818V1.09091C9.36806 1.25311 7.87929 1.74173 6.54188 2.52424C5.20447 3.30675 4.0491 4.36519 3.1527 5.62909ZM2.06179 16.4727L3.94906 15.3818C3.5008 14.3107 3.26996 13.1611 3.26996 12C3.26996 10.8389 3.5008 9.68931 3.94906 8.61818L2.06179 7.52727C1.42024 8.9311 1.08819 10.4565 1.08819 12C1.08819 13.5435 1.42024 15.0689 2.06179 16.4727ZM10.9091 20.6618C9.75705 20.515 8.64578 20.1404 7.64002 19.5598C6.63425 18.9792 5.75411 18.2042 5.05088 17.28L3.1527 18.3709C4.0491 19.6348 5.20447 20.6933 6.54188 21.4758C7.87929 22.2583 9.36806 22.7469 10.9091 22.9091V20.6618ZM20.8472 18.3709L18.9491 17.28C18.2458 18.2042 17.3657 18.9792 16.3599 19.5598C15.3542 20.1404 14.2429 20.515 13.0909 20.6618V22.8436C16.2 22.5273 19.0254 20.9018 20.8472 18.3709ZM21.9382 16.4727C23.2363 13.6364 23.2363 10.3636 21.9382 7.52727L20.0509 8.61818C20.4991 9.68931 20.73 10.8389 20.73 12C20.73 13.1611 20.4991 14.3107 20.0509 15.3818L21.9382 16.4727ZM15.2727 12L12 6.54545L8.72724 12L12 17.4545L15.2727 12Z" fill="white"/>
</svg>
