<svg width="32" height="32" viewBox="0 0 32 32" fill="none" xmlns="http://www.w3.org/2000/svg">
<path d="M9.26324 25.8114L12.1683 27.491L12.7081 27.8081C13.3851 28.2022 14.2506 27.9709 14.6448 27.2853L21.1318 16.0509C21.4232 15.5453 21.5003 14.9369 21.3461 14.3713L20.8319 12.4774L19.5688 11.2837L17.932 10.7979L16.0245 11.2949C15.4589 11.4406 14.9704 11.809 14.6791 12.3232L8.19207 23.5576C7.79788 24.2346 8.02925 25.1001 8.7148 25.4943L9.26324 25.8114Z" fill="#11C559"/>
<path d="M20.8319 12.4774L24.2768 6.51307C24.7395 5.71612 24.4653 4.6878 23.6684 4.22505C22.8714 3.7623 21.8431 4.03652 21.3803 4.83348L17.9355 10.7978L20.8319 12.4774Z" fill="#11C559"/>
<path d="M23.425 23.281C23.425 23.8492 23.1993 24.3941 22.7975 24.7959C22.3958 25.1976 21.8508 25.4234 21.2827 25.4234C20.7145 25.4234 20.1696 25.1976 19.7678 24.7959C19.366 24.3941 19.1403 23.8492 19.1403 23.281C19.1403 22.7128 19.366 22.1679 19.7678 21.7661C20.1696 21.3644 20.7145 21.1387 21.2827 21.1387C21.8508 21.1387 22.3958 21.3644 22.7975 21.7661C23.1993 22.1679 23.425 22.7128 23.425 23.281Z" fill="#11C559"/>
<path d="M19.8344 21.7021L23.3736 23.7459C23.2776 24.1821 23.048 24.5677 22.7309 24.8591L19.1917 22.8153C19.2877 22.3791 19.5174 21.9935 19.8344 21.7021Z" fill="#11C559"/>
</svg>
