<svg width="32" height="32" viewBox="0 0 32 32" fill="none" xmlns="http://www.w3.org/2000/svg">
<path d="M16 4C9.38327 4 4 9.38327 4 16C4 22.6167 9.38327 28 16 28C22.6167 28 28 22.6167 28 16C28 9.38327 22.6167 4 16 4ZM24.25 21.5385H21.6412C21.5603 21.5383 21.4809 21.5169 21.411 21.4764C21.341 21.4359 21.2829 21.3777 21.2425 21.3077L20.3113 19.7108C20.25 19.6064 20.2322 19.482 20.2617 19.3646L21.119 15.9077C21.1362 15.838 21.1694 15.7734 21.216 15.7188C21.2626 15.6642 21.3212 15.6212 21.3873 15.5933L23.0085 14.9067C23.0877 14.8731 23.1747 14.8624 23.2597 14.8756C23.3448 14.8889 23.4244 14.9256 23.4896 14.9817L25.8913 17.0483C25.9506 17.0992 25.9958 17.1644 26.023 17.2377C26.0501 17.3109 26.0582 17.3899 26.0465 17.4671C25.8476 18.8317 25.3709 20.141 24.6458 21.314C24.6048 21.3824 24.5468 21.4391 24.4775 21.4784C24.4081 21.5177 24.3297 21.5384 24.25 21.5385ZM8.99154 14.9113L10.6127 15.5979C10.6788 15.6258 10.7374 15.6688 10.784 15.7234C10.8306 15.778 10.8638 15.8427 10.881 15.9123L11.7383 19.3692C11.7678 19.4867 11.75 19.611 11.6887 19.7154L10.7575 21.3077C10.7171 21.3777 10.659 21.4359 10.589 21.4764C10.5191 21.5169 10.4397 21.5383 10.3588 21.5385H7.75C7.6711 21.5385 7.5935 21.5183 7.52461 21.4799C7.45573 21.4414 7.39786 21.3859 7.35654 21.3187C6.63143 20.1456 6.15468 18.8363 5.95577 17.4717C5.94407 17.3945 5.95218 17.3155 5.97932 17.2423C6.00646 17.169 6.05176 17.1039 6.11096 17.0529L8.51269 14.9863C8.5777 14.9307 8.65692 14.8942 8.74148 14.8809C8.82604 14.8677 8.91262 14.8782 8.99154 14.9113ZM23.815 9.87827L22.7725 12.8425C22.7515 12.9031 22.7182 12.9586 22.6746 13.0056C22.631 13.0526 22.5781 13.09 22.5192 13.1154L20.8127 13.8383C20.7344 13.8714 20.6484 13.8823 20.5643 13.8696C20.4803 13.857 20.4013 13.8214 20.3362 13.7667L17.0904 11.0442C17.0385 11.0013 16.9967 10.9476 16.9678 10.8868C16.9389 10.826 16.9236 10.7596 16.9231 10.6923V8.755C16.9231 8.67909 16.9419 8.60437 16.9777 8.53745C17.0135 8.47053 17.0653 8.41347 17.1285 8.37135L19.5994 6.72481C19.6639 6.68177 19.7382 6.65566 19.8154 6.64891C19.8927 6.64215 19.9704 6.65496 20.0413 6.68615C21.4631 7.30627 22.7249 8.24228 23.7308 9.42308C23.7837 9.48481 23.8193 9.55942 23.8341 9.63935C23.8489 9.71928 23.8423 9.8017 23.815 9.87827ZM12.4 6.72481L14.8715 8.37135C14.9347 8.41347 14.9865 8.47053 15.0223 8.53745C15.0581 8.60437 15.0769 8.67909 15.0769 8.755V10.6923C15.0769 10.7597 15.0621 10.8263 15.0336 10.8874C15.0051 10.9485 14.9636 11.0026 14.9119 11.046L11.6662 13.7685C11.601 13.8231 11.5221 13.8587 11.438 13.8714C11.3539 13.884 11.2679 13.8731 11.1896 13.84L9.48077 13.1154C9.42155 13.0903 9.36822 13.0531 9.32421 13.0062C9.2802 12.9593 9.24647 12.9038 9.22519 12.8431L8.18269 9.87885C8.1556 9.802 8.14934 9.71935 8.16454 9.6393C8.17974 9.55925 8.21586 9.48465 8.26923 9.42308C9.27567 8.24109 10.5385 7.30425 11.9615 6.68385C12.0322 6.6536 12.1094 6.64151 12.186 6.64866C12.2625 6.65582 12.3361 6.68199 12.4 6.72481ZM13.3987 25.6167L12.2604 22.75C12.2344 22.6848 12.2235 22.6146 12.2287 22.5446C12.2339 22.4746 12.255 22.4068 12.2904 22.3462L13.1656 20.8462C13.206 20.7761 13.2641 20.718 13.3341 20.6775C13.404 20.637 13.4834 20.6156 13.5642 20.6154H18.4358C18.5166 20.6156 18.596 20.637 18.6659 20.6775C18.7359 20.718 18.794 20.7761 18.8344 20.8462L19.7102 22.3462C19.7457 22.4067 19.7668 22.4746 19.7721 22.5445C19.7774 22.6145 19.7667 22.6848 19.7408 22.75L18.6106 25.6156C18.5829 25.6856 18.5386 25.7479 18.4814 25.7968C18.4241 25.8458 18.3558 25.88 18.2823 25.8965C16.7826 26.2407 15.2243 26.2407 13.7246 25.8965C13.6517 25.8798 13.5839 25.8456 13.5271 25.7969C13.4703 25.7481 13.4262 25.6863 13.3987 25.6167Z" fill="#11C559"/>
</svg>
