<svg width="9" height="8" viewBox="0 0 9 8" fill="none" xmlns="http://www.w3.org/2000/svg">
<path d="M6.19646 0.677246C5.36703 0.677246 4.65212 1.07145 4.26217 1.72447C3.87222 1.07145 3.1573 0.677246 2.32788 0.677246C1.73301 0.677963 1.16272 0.91459 0.742084 1.33522C0.32145 1.75586 0.0848231 2.32615 0.0841064 2.92102C0.0841064 4.02705 0.78045 5.18298 2.14993 6.35593C2.78225 6.89401 3.46499 7.36985 4.18867 7.77686C4.21125 7.78905 4.23651 7.79543 4.26217 7.79543C4.28783 7.79543 4.31309 7.78905 4.33567 7.77686C5.05935 7.36985 5.74209 6.89401 6.37441 6.35593C7.74389 5.18298 8.44023 4.02705 8.44023 2.92102C8.43951 2.32615 8.20289 1.75586 7.78225 1.33522C7.36162 0.91459 6.79132 0.677963 6.19646 0.677246ZM4.26217 7.4635C3.72057 7.15556 0.393593 5.1675 0.393593 2.92102C0.394207 2.4082 0.598194 1.91657 0.960811 1.55395C1.32343 1.19133 1.81506 0.987346 2.32788 0.986732C3.14454 0.986732 3.83082 1.42427 4.11903 2.12835C4.13069 2.15673 4.15052 2.18101 4.17601 2.19809C4.2015 2.21517 4.23149 2.22429 4.26217 2.22429C4.29285 2.22429 4.32284 2.21517 4.34833 2.19809C4.37381 2.18101 4.39365 2.15673 4.40531 2.12835C4.69351 1.42427 5.3798 0.986732 6.19646 0.986732C6.70927 0.987346 7.20091 1.19133 7.56353 1.55395C7.92614 1.91657 8.13013 2.4082 8.13074 2.92102C8.13074 5.16479 4.80377 7.15556 4.26217 7.4635Z" fill="#11C559"/>
</svg>
