<svg width="22" height="24" viewBox="0 0 22 24" fill="none" xmlns="http://www.w3.org/2000/svg">
<path d="M2.74283 24C1.98854 24 1.3426 23.7312 0.805 23.1936C0.2674 22.656 -0.000942475 22.0105 -2.81892e-05 21.2571V8.91428C-2.81892e-05 8.48 0.097343 8.06857 0.292086 7.68C0.486829 7.29143 0.755172 6.97143 1.09711 6.72L9.32569 0.548571C9.57712 0.365714 9.83997 0.228571 10.1143 0.137143C10.3885 0.0457141 10.6743 0 10.9714 0C11.2685 0 11.5543 0.0457141 11.8285 0.137143C12.1028 0.228571 12.3657 0.365714 12.6171 0.548571L20.8457 6.72C21.1885 6.97143 21.4573 7.29143 21.6521 7.68C21.8468 8.06857 21.9437 8.48 21.9428 8.91428V21.2571C21.9428 22.0114 21.674 22.6574 21.1364 23.195C20.5988 23.7326 19.9533 24.0009 19.2 24H13.7143V14.4H8.22854V24H2.74283Z" fill="white"/>
</svg>
