<svg width="24" height="24" viewBox="0 0 24 24" fill="none" xmlns="http://www.w3.org/2000/svg">
<path d="M16.5 21L21.3 18L16.5 15V21ZM3.6 7.2H18V4.8H3.6V7.2ZM18 24C16.34 24 14.9248 23.4148 13.7544 22.2444C12.584 21.074 11.9992 19.6592 12 18C12 16.34 12.5852 14.9248 13.7556 13.7544C14.926 12.584 16.3408 11.9992 18 12C19.66 12 21.0752 12.5852 22.2456 13.7556C23.416 14.926 24.0008 16.3408 24 18C24 19.66 23.4148 21.0752 22.2444 22.2456C21.074 23.416 19.6592 24.0008 18 24ZM0 22.8V2.4C0 1.74 0.2352 1.1748 0.7056 0.704402C1.176 0.234002 1.7408 -0.000797963 2.4 2.03735e-06H19.2C19.86 2.03735e-06 20.4252 0.235202 20.8956 0.705602C21.366 1.176 21.6008 1.7408 21.6 2.4V10.41C21.04 10.13 20.4548 9.9248 19.8444 9.7944C19.234 9.664 18.6192 9.5992 18 9.6H3.6V12H12.12C11.78 12.34 11.4652 12.71 11.1756 13.11C10.886 13.51 10.6308 13.94 10.41 14.4H3.6V16.8H9.69C9.65 17 9.6248 17.1952 9.6144 17.3856C9.604 17.576 9.5992 17.7808 9.6 18C9.6 18.84 9.7152 19.6452 9.9456 20.4156C10.176 21.186 10.5208 21.9208 10.98 22.62L10.8 22.8L9 21L7.2 22.8L5.4 21L3.6 22.8L1.8 21L0 22.8Z" fill="white"/>
</svg>
