<svg width="40" height="40" viewBox="0 0 40 40" fill="none" xmlns="http://www.w3.org/2000/svg">
<path d="M20 0C14.6969 0 9.60625 2.10844 5.85938 5.85781C2.10863 9.60868 0.00103897 14.6956 0 20C0 25.3022 2.10938 30.3928 5.85938 34.1422C9.60625 37.8916 14.6969 40 20 40C25.3031 40 30.3937 37.8916 34.1406 34.1422C37.8906 30.3928 40 25.3022 40 20C40 14.6978 37.8906 9.60719 34.1406 5.85781C30.3937 2.10844 25.3031 0 20 0Z" fill="url(#paint0_linear_807_1810)"/>
<path d="M26.1979 8.3335H13.8021C10.7818 8.3335 8.33336 10.7819 8.33336 13.8022V26.1981C8.33336 29.2184 10.7818 31.6668 13.8021 31.6668H26.1979C29.2183 31.6668 31.6667 29.2184 31.6667 26.1981V13.8022C31.6667 10.7819 29.2183 8.3335 26.1979 8.3335Z" fill="url(#paint1_radial_807_1810)"/>
<path d="M26.1979 8.3335H13.8021C10.7818 8.3335 8.33336 10.7819 8.33336 13.8022V26.1981C8.33336 29.2184 10.7818 31.6668 13.8021 31.6668H26.1979C29.2183 31.6668 31.6667 29.2184 31.6667 26.1981V13.8022C31.6667 10.7819 29.2183 8.3335 26.1979 8.3335Z" fill="url(#paint2_radial_807_1810)"/>
<path d="M20.0008 10.8857C17.5255 10.8857 17.2148 10.8966 16.2426 10.9408C15.2723 10.9853 14.6099 11.1389 14.0304 11.3643C13.4309 11.597 12.9224 11.9085 12.4158 12.4153C11.9087 12.9219 11.5973 13.4304 11.3638 14.0297C11.1377 14.6094 10.984 15.272 10.9403 16.2419C10.8968 17.2142 10.8854 17.525 10.8854 20.0004C10.8854 22.4758 10.8964 22.7856 10.9405 23.7577C10.9852 24.7281 11.1387 25.3904 11.364 25.9699C11.5969 26.5695 11.9084 27.078 12.4151 27.5846C12.9216 28.0916 13.4301 28.4038 14.0292 28.6366C14.6092 28.862 15.2716 29.0156 16.2418 29.06C17.2141 29.1042 17.5245 29.1151 19.9997 29.1151C22.4754 29.1151 22.7851 29.1042 23.7572 29.06C24.7276 29.0156 25.3907 28.862 25.9706 28.6366C26.5699 28.4038 27.0777 28.0916 27.5841 27.5846C28.0911 27.078 28.4025 26.5695 28.6361 25.9702C28.8601 25.3904 29.014 24.7279 29.0595 23.7579C29.1032 22.7857 29.1146 22.4758 29.1146 20.0004C29.1146 17.525 29.1032 17.2144 29.0595 16.2421C29.014 15.2718 28.8601 14.6095 28.6361 14.03C28.4025 13.4304 28.0911 12.9219 27.5841 12.4153C27.0771 11.9083 26.5701 11.5969 25.9701 11.3643C25.389 11.1389 24.7263 10.9852 23.756 10.9408C22.7837 10.8966 22.4742 10.8857 19.998 10.8857H20.0008ZM19.1832 12.5283C19.4259 12.5279 19.6967 12.5283 20.0008 12.5283C22.4345 12.5283 22.7229 12.537 23.684 12.5807C24.5726 12.6213 25.055 12.7698 25.3763 12.8946C25.8016 13.0598 26.1049 13.2573 26.4237 13.5764C26.7427 13.8954 26.9401 14.1992 27.1057 14.6245C27.2305 14.9454 27.3792 15.4277 27.4197 16.3164C27.4633 17.2773 27.4728 17.5658 27.4728 19.9983C27.4728 22.4308 27.4633 22.7195 27.4197 23.6802C27.379 24.5689 27.2305 25.0513 27.1057 25.3722C26.9406 25.7976 26.7427 26.1004 26.4237 26.4193C26.1047 26.7383 25.8018 26.9357 25.3763 27.101C25.0553 27.2263 24.5726 27.3744 23.684 27.415C22.7231 27.4587 22.4345 27.4682 20.0008 27.4682C17.5671 27.4682 17.2786 27.4587 16.3178 27.415C15.4291 27.374 14.9468 27.2255 14.6252 27.1008C14.2 26.9355 13.8961 26.7381 13.5771 26.4191C13.2581 26.1001 13.0606 25.797 12.895 25.3715C12.7702 25.0505 12.6216 24.5682 12.5811 23.6795C12.5375 22.7187 12.5287 22.4301 12.5287 19.996C12.5287 17.5621 12.5375 17.275 12.5811 16.3141C12.6218 15.4254 12.7702 14.9431 12.895 14.6218C13.0603 14.1964 13.2581 13.8926 13.5772 13.5736C13.8962 13.2546 14.2 13.0571 14.6253 12.8916C14.9466 12.7663 15.4291 12.6182 16.3178 12.5773C17.1586 12.5393 17.4845 12.5279 19.1832 12.526V12.5283ZM24.8662 14.0417C24.2624 14.0417 23.7725 14.5311 23.7725 15.1351C23.7725 15.7389 24.2624 16.2288 24.8662 16.2288C25.47 16.2288 25.96 15.7389 25.96 15.1351C25.96 14.5312 25.47 14.0413 24.8662 14.0413V14.0417ZM20.0008 15.3196C17.4159 15.3196 15.3201 17.4154 15.3201 20.0004C15.3201 22.5854 17.4159 24.6802 20.0008 24.6802C22.5858 24.6802 24.6809 22.5854 24.6809 20.0004C24.6809 17.4155 22.5856 15.3196 20.0007 15.3196H20.0008ZM20.0008 16.9622C21.6787 16.9622 23.0391 18.3223 23.0391 20.0004C23.0391 21.6783 21.6787 23.0387 20.0008 23.0387C18.3228 23.0387 16.9627 21.6783 16.9627 20.0004C16.9627 18.3223 18.3228 16.9622 20.0008 16.9622Z" fill="white"/>
<defs>
<linearGradient id="paint0_linear_807_1810" x1="2000" y1="0" x2="2000" y2="4000" gradientUnits="userSpaceOnUse">
<stop stop-color="white"/>
<stop offset="1" stop-color="white"/>
</linearGradient>
<radialGradient id="paint1_radial_807_1810" cx="0" cy="0" r="1" gradientUnits="userSpaceOnUse" gradientTransform="translate(14.5313 33.464) rotate(-90) scale(23.1251 21.5081)">
<stop stop-color="#FFDD55"/>
<stop offset="0.1" stop-color="#FFDD55"/>
<stop offset="0.5" stop-color="#FF543E"/>
<stop offset="1" stop-color="#C837AB"/>
</radialGradient>
<radialGradient id="paint2_radial_807_1810" cx="0" cy="0" r="1" gradientUnits="userSpaceOnUse" gradientTransform="translate(4.42493 10.0143) rotate(78.681) scale(10.337 42.6096)">
<stop stop-color="#3771C8"/>
<stop offset="0.128" stop-color="#3771C8"/>
<stop offset="1" stop-color="#6600FF" stop-opacity="0"/>
</radialGradient>
</defs>
</svg>
