<svg width="27" height="24" viewBox="0 0 27 24" fill="none" xmlns="http://www.w3.org/2000/svg">
<path d="M4.79997 12L7.19997 7.2V6H3.59997V7.2H5.99997L3.59997 12M9.59997 12L12 7.2V6H8.39997V7.2H10.8L8.39997 12M14.4 12L16.8 7.2V6H13.2V7.2H15.6L13.2 12M24 0C22.68 0 21.6 1.08 21.6 2.4C21.6 3.24 22.08 4.08 22.8 4.44V18H19.2V15.6C19.92 15.6 20.4 15.12 20.4 14.4V3.6C20.4 2.88 19.92 2.4 19.2 2.4H14.64C13.68 0.96 12 0 10.2 0C8.39997 0 6.71997 0.96 5.75997 2.4H1.19997C0.479969 2.4 -3.05176e-05 2.88 -3.05176e-05 3.6V14.4C-3.05176e-05 15.12 0.479969 15.6 1.19997 15.6V24H19.2V20.4H22.8C24.12 20.4 25.2 19.32 25.2 18V4.44C25.92 4.08 26.4 3.24 26.4 2.4C26.4 1.08 25.32 0 24 0ZM14.4 20.4H5.99997V18H14.4V20.4ZM18 13.2H2.39997V4.8H18V13.2Z" fill="white"/>
</svg>
