<svg width="40" height="40" viewBox="0 0 40 40" fill="none" xmlns="http://www.w3.org/2000/svg">
<path d="M20 0C14.6969 0 9.60625 2.10844 5.85938 5.85781C2.10863 9.60868 0.00103897 14.6956 0 20C0 25.3022 2.10938 30.3928 5.85938 34.1422C9.60625 37.8916 14.6969 40 20 40C25.3031 40 30.3937 37.8916 34.1406 34.1422C37.8906 30.3928 40 25.3022 40 20C40 14.6978 37.8906 9.60719 34.1406 5.85781C30.3937 2.10844 25.3031 0 20 0Z" fill="url(#paint0_linear_807_1802)"/>
<g clip-path="url(#clip0_807_1802)">
<path d="M14.5455 27.5038V19.7767L12.1491 17.5843L10.0002 16.3677V26.1402C10.0002 26.8947 10.6115 27.5038 11.3638 27.5038H14.5455Z" fill="#4285F4"/>
<path d="M25.4543 27.5037H28.636C29.3906 27.5037 29.9997 26.8923 29.9997 26.1401V16.3677L27.5657 17.7612L25.4543 19.7766V27.5037Z" fill="#34A853"/>
<path d="M14.5455 19.7766L14.2195 16.7574L14.5455 13.8677L19.9999 17.9585L25.4543 13.8677L25.8191 16.6014L25.4543 19.7766L19.9999 23.8674L14.5455 19.7766Z" fill="#EA4335"/>
<path d="M25.4543 13.8679V19.7768L29.9997 16.3679V14.5497C29.9997 12.8634 28.0747 11.9021 26.7271 12.9134L25.4543 13.8679Z" fill="#FBBC04"/>
<path d="M10.0008 16.3679L12.0913 17.9358L14.5462 19.7769V13.868L13.2734 12.9135C11.9234 11.9021 10.0008 12.8635 10.0008 14.5497V16.3678V16.3679Z" fill="#C5221F"/>
</g>
<defs>
<linearGradient id="paint0_linear_807_1802" x1="2000" y1="0" x2="2000" y2="4000" gradientUnits="userSpaceOnUse">
<stop stop-color="white"/>
<stop offset="1" stop-color="white"/>
</linearGradient>
<clipPath id="clip0_807_1802">
<rect width="20" height="15.0777" fill="white" transform="translate(9.99991 12.5005)"/>
</clipPath>
</defs>
</svg>
