<svg width="23" height="24" viewBox="0 0 23 24" fill="none" xmlns="http://www.w3.org/2000/svg">
<path fill-rule="evenodd" clip-rule="evenodd" d="M18.4 0.830769V12.8495C18.1379 12.8168 17.8709 12.8 17.6 12.8C14.3788 12.8 11.7135 15.1797 11.2661 18.2769H3.34545C2.90182 18.2769 2.47635 18.452 2.16266 18.7636C1.84896 19.0752 1.67273 19.4978 1.67273 19.9385H11.2421C11.3089 20.5195 11.4535 21.077 11.6652 21.6H0.836364C0.614546 21.6 0.401814 21.5125 0.244965 21.3567C0.0881168 21.2009 0 20.9896 0 20.7692V3.32308C0 2.44174 0.352466 1.5965 0.979861 0.973307C1.60726 0.350109 2.45818 0 3.34545 0H17.5636C17.7855 0 17.9982 0.0875272 18.155 0.243327C18.3119 0.399126 18.4 0.610436 18.4 0.830769ZM20.72 15.552C19.88 14.832 18.8 14.4 17.6 14.4C16.4 14.4 15.32 14.832 14.48 15.552C15.5072 16.4304 16.16 17.7408 16.16 19.2C16.1606 19.8934 16.0107 20.5787 15.7207 21.2085C15.4306 21.8384 15.0073 22.3977 14.48 22.848C15.32 23.568 16.4 24 17.6 24C18.8 24 19.88 23.568 20.72 22.848C19.6928 21.9696 19.04 20.6592 19.04 19.2C19.0394 18.5066 19.1893 17.8213 19.4793 17.1915C19.7694 16.5616 20.1927 16.0023 20.72 15.552ZM21.3824 22.152C22.0208 21.336 22.4 20.3136 22.4 19.2C22.4016 18.1297 22.0432 17.0899 21.3824 16.248C20.5376 16.9536 20 18.0144 20 19.2C19.9996 19.7634 20.1232 20.3199 20.3622 20.8301C20.6011 21.3403 20.9494 21.7916 21.3824 22.152ZM13.8176 16.248C13.1792 17.064 12.8 18.0864 12.8 19.2C12.7984 20.2703 13.1568 21.3101 13.8176 22.152C14.6624 21.4464 15.2 20.3856 15.2 19.2C15.2004 18.6366 15.0768 18.0801 14.8378 17.5699C14.5989 17.0597 14.2506 16.6084 13.8176 16.248Z" fill="white"/>
</svg>
