<svg width="32" height="32" viewBox="0 0 32 32" fill="none" xmlns="http://www.w3.org/2000/svg">
<path d="M4.56666 26.6665L2.66666 24.7999L8.13333 19.3332C8.82222 18.6443 9.29466 17.783 9.55066 16.7492C9.80666 15.7154 9.93422 14.1323 9.93333 11.9999C9.93333 10.711 10.2222 9.44432 10.8 8.19988C11.3778 6.95543 12.2 5.79988 13.2667 4.73321C15.2889 2.71099 17.5222 1.56655 19.9667 1.29988C22.4111 1.03321 24.4222 1.71099 26 3.33321C27.6 4.93321 28.2667 6.95543 28 9.39988C27.7333 11.8443 26.6 14.0665 24.6 16.0665C23.5333 17.1332 22.3778 17.9554 21.1333 18.5332C19.8889 19.111 18.6222 19.3999 17.3333 19.3999C15.1778 19.3999 13.6 19.5221 12.6 19.7665C11.6 20.011 10.7444 20.4888 10.0333 21.1999L4.56666 26.6665ZM13.7333 15.5332C14.7778 16.5554 16.1889 16.9332 17.9667 16.6665C19.7444 16.3999 21.3333 15.5665 22.7333 14.1665C24.1556 12.7443 25.0058 11.1497 25.284 9.38254C25.5622 7.61543 25.1787 6.23232 24.1333 5.23321C23.0667 4.16655 21.672 3.76655 19.9493 4.03321C18.2267 4.29988 16.6436 5.14432 15.2 6.56655C13.8 7.96655 12.9498 9.5501 12.6493 11.3172C12.3489 13.0843 12.7102 14.4897 13.7333 15.5332ZM24 30.6665C22.5333 30.6665 21.2778 30.1443 20.2333 29.0999C19.1889 28.0554 18.6667 26.7999 18.6667 25.3332C18.6667 23.8665 19.1889 22.611 20.2333 21.5665C21.2778 20.5221 22.5333 19.9999 24 19.9999C25.4667 19.9999 26.7222 20.5221 27.7667 21.5665C28.8111 22.611 29.3333 23.8665 29.3333 25.3332C29.3333 26.7999 28.8111 28.0554 27.7667 29.0999C26.7222 30.1443 25.4667 30.6665 24 30.6665Z" fill="#11C559"/>
</svg>
