<svg width="40" height="40" viewBox="0 0 40 40" fill="none" xmlns="http://www.w3.org/2000/svg">
<path d="M20 40C31.0457 40 40 31.0457 40 20C40 8.9543 31.0457 0 20 0C8.9543 0 0 8.9543 0 20C0 31.0457 8.9543 40 20 40Z" fill="#11C559"/>
<path fill-rule="evenodd" clip-rule="evenodd" d="M20.35 29.1562C21.2296 29.0951 22.1016 28.9529 22.955 28.7312C24.0082 29.0526 25.1215 29.1254 26.2075 28.9437C26.2505 28.9368 26.294 28.9335 26.3375 28.9337C26.725 28.9337 27.2337 29.1587 27.975 29.6337V28.8525C27.9752 28.7173 28.0112 28.5846 28.0795 28.468C28.1479 28.3514 28.2459 28.255 28.3638 28.1887C28.6863 28.0062 28.9863 27.7962 29.26 27.565C30.34 26.65 30.95 25.43 30.95 24.1375C30.95 23.7037 30.8813 23.2825 30.7512 22.88C31.0775 22.2712 31.3413 21.6312 31.535 20.9675C32.1614 21.9063 32.4971 23.0089 32.5 24.1375C32.5 25.8937 31.6825 27.5312 30.2687 28.7287C30.0328 28.9285 29.7844 29.113 29.525 29.2812V31.1075C29.525 31.7362 28.8 32.0975 28.2887 31.7237C27.8053 31.3624 27.3047 31.0245 26.7887 30.7112C26.641 30.6228 26.4873 30.5447 26.3288 30.4775C25.9037 30.5412 25.4688 30.5737 25.03 30.5737C23.265 30.5737 21.6338 30.045 20.35 29.1562ZM11.0175 25.5037C8.7875 23.6125 7.5 21.0362 7.5 18.275C7.5 12.6337 12.8225 8.125 19.3212 8.125C25.8212 8.125 31.1438 12.6337 31.1438 18.275C31.1438 23.9175 25.82 28.4262 19.3212 28.4262C18.5912 28.4262 17.8687 28.37 17.1613 28.2575C16.855 28.33 15.6312 29.0575 13.8675 30.345C13.2287 30.8125 12.3225 30.3612 12.3225 29.575V26.46C11.8658 26.172 11.4297 25.8525 11.0175 25.5037ZM17.2037 26.3362C17.2575 26.3362 17.3125 26.34 17.3662 26.3487C18.0037 26.4562 18.6587 26.5112 19.3212 26.5112C24.8113 26.5112 29.205 22.7887 29.205 18.275C29.205 13.7625 24.8113 10.04 19.3212 10.04C13.8337 10.04 9.4375 13.7625 9.4375 18.275C9.4375 20.4575 10.4637 22.5125 12.2787 24.05C12.735 24.435 13.2362 24.785 13.7738 25.09C14.075 25.26 14.2613 25.5775 14.2613 25.92V27.7162C15.6563 26.78 16.5737 26.3362 17.2037 26.3362ZM14.2825 20.1912C13.4262 20.1912 12.7325 19.5037 12.7325 18.6587C12.7325 17.8125 13.4262 17.1262 14.2825 17.1262C15.1387 17.1262 15.8325 17.8125 15.8325 18.6587C15.8325 19.505 15.1387 20.1912 14.2825 20.1912ZM19.3212 20.1912C18.465 20.1912 17.7712 19.5037 17.7712 18.6587C17.7712 17.8125 18.465 17.1262 19.3212 17.1262C20.1775 17.1262 20.8713 17.8125 20.8713 18.6587C20.8713 19.505 20.1775 20.1912 19.3212 20.1912ZM24.36 20.1912C23.5038 20.1912 22.81 19.5037 22.81 18.6587C22.81 17.8125 23.5038 17.1262 24.36 17.1262C25.2163 17.1262 25.91 17.8125 25.91 18.6587C25.91 19.505 25.2163 20.1912 24.36 20.1912Z" fill="white"/>
</svg>
